<?xml version="1.0" encoding="UTF-8" standalone="no"?>
<svg
   xmlns:dc="http://purl.org/dc/elements/1.1/"
   xmlns:cc="http://creativecommons.org/ns#"
   xmlns:rdf="http://www.w3.org/1999/02/22-rdf-syntax-ns#"
   xmlns:svg="http://www.w3.org/2000/svg"
   xmlns="http://www.w3.org/2000/svg"
   xmlns:sodipodi="http://sodipodi.sourceforge.net/DTD/sodipodi-0.dtd"
   xmlns:inkscape="http://www.inkscape.org/namespaces/inkscape"
   width="149.98495mm"
   height="40.892086mm"
   viewBox="0 0 149.98495 40.892086"
   version="1.1"
   id="svg1554"
   inkscape:version="1.0 (4035a4fb49, 2020-05-01)"
   sodipodi:docname="logo-path.svg">
  <defs
     id="defs1548" />
  <sodipodi:namedview
     id="base"
     pagecolor="#ffffff"
     bordercolor="#666666"
     borderopacity="1.0"
     inkscape:pageopacity="0.0"
     inkscape:pageshadow="2"
     inkscape:zoom="0.7"
     inkscape:cx="82.226575"
     inkscape:cy="130.52636"
     inkscape:document-units="mm"
     inkscape:current-layer="layer1"
     inkscape:document-rotation="0"
     showgrid="false"
     fit-margin-top="0"
     fit-margin-left="0"
     fit-margin-right="0"
     fit-margin-bottom="0"
     inkscape:window-width="1920"
     inkscape:window-height="1147"
     inkscape:window-x="1912"
     inkscape:window-y="-8"
     inkscape:window-maximized="1" />
  <metadata
     id="metadata1551">
    <rdf:RDF>
      <cc:Work
         rdf:about="">
        <dc:format>image/svg+xml</dc:format>
        <dc:type
           rdf:resource="http://purl.org/dc/dcmitype/StillImage" />
        <dc:title />
      </cc:Work>
    </rdf:RDF>
  </metadata>
  <g
     inkscape:label="Layer 1"
     inkscape:groupmode="layer"
     id="layer1"
     transform="translate(-27.06109,-29.446814)">
    <g
       transform="translate(0,0.11197878)"
       aria-label="P2RANK"
       id="text835"
       style="font-style:normal;font-variant:normal;font-weight:normal;font-stretch:normal;font-size:18.141px;line-height:1.25;font-family:'Eternal Logo';-inkscape-font-specification:'Eternal Logo, Normal';font-variant-ligatures:normal;font-variant-caps:normal;font-variant-numeric:normal;font-variant-east-asian:normal;fill:#000000;fill-opacity:1;stroke:none;stroke-width:0.453525">
      <path
         d="m 91.452065,47.451248 q 0.062,-4.021492 -4.721267,-4.021492 H 76.25189 V 56.132 h 2.940826 v -4.517534 h 7.538082 q 4.659261,0 4.721267,-4.163218 z m -12.259349,1.842445 v -3.543164 h 7.254629 q 2.072751,0 2.072751,1.700719 0,1.842445 -2.072751,1.842445 z"
         style="font-style:normal;font-variant:normal;font-weight:normal;font-stretch:normal;font-size:18.141px;font-family:'Eternal Logo';-inkscape-font-specification:'Eternal Logo, Normal';font-variant-ligatures:normal;font-variant-caps:normal;font-variant-numeric:normal;font-variant-east-asian:normal;stroke-width:0.453525"
         id="path2129" />
      <path
         d="m 102.69275,45.750529 q 2.71052,0 2.71052,1.390692 0,1.479271 -2.71052,1.479271 h -4.216363 q -5.29703,0 -5.359036,3.800043 V 56.132 h 13.623469 l 1.57671,-1.160386 -1.57671,-1.160387 H 96.155615 v -1.390692 q 0,-1.479271 2.71052,-1.479271 h 4.216365 q 5.29703,0 5.35904,-3.800043 0.062,-3.711465 -5.35904,-3.711465 h -8.26443 l -1.576708,1.160387 1.576708,1.160386 z"
         style="font-style:normal;font-variant:normal;font-weight:normal;font-stretch:normal;font-size:18.141px;font-family:'Eternal Logo';-inkscape-font-specification:'Eternal Logo, Normal';font-variant-ligatures:normal;font-variant-caps:normal;font-variant-numeric:normal;font-variant-east-asian:normal;stroke-width:0.453525"
         id="path2131" />
      <path
         d="m 121.93213,56.132 h 3.27743 l -2.86996,-4.738982 q 2.76367,-0.744065 2.80796,-3.94177 0.062,-4.021492 -4.72127,-4.021492 H 109.94738 V 56.132 h 2.94083 v -4.517534 h 6.31569 z m -9.04392,-6.838307 v -3.543164 h 7.25463 q 2.07275,0 2.07275,1.700719 0,1.842445 -2.07275,1.842445 z"
         style="font-style:normal;font-variant:normal;font-weight:normal;font-stretch:normal;font-size:18.141px;font-family:'Eternal Logo';-inkscape-font-specification:'Eternal Logo, Normal';font-variant-ligatures:normal;font-variant-caps:normal;font-variant-numeric:normal;font-variant-east-asian:normal;stroke-width:0.453525"
         id="path2133" />
      <path
         d="M 132.89823,43.429756 126.05992,56.132 h 3.0294 l 0.93008,-1.709577 h 9.05279 l 0.93008,1.709577 h 3.02941 l -6.83831,-12.702244 z m -1.68301,8.795905 3.33058,-6.120816 3.33057,6.120816 z"
         style="font-style:normal;font-variant:normal;font-weight:normal;font-stretch:normal;font-size:18.141px;font-family:'Eternal Logo';-inkscape-font-specification:'Eternal Logo, Normal';font-variant-ligatures:normal;font-variant-caps:normal;font-variant-numeric:normal;font-variant-east-asian:normal;stroke-width:0.453525"
         id="path2135" />
      <path
         d="M 144.31608,43.429756 V 56.132 h 2.93196 v -9.035069 l 9.15908,9.035069 h 3.41916 V 43.429756 h -2.93197 v 9.035069 l -9.15908,-9.035069 z"
         style="font-style:normal;font-variant:normal;font-weight:normal;font-stretch:normal;font-size:18.141px;font-family:'Eternal Logo';-inkscape-font-specification:'Eternal Logo, Normal';font-variant-ligatures:normal;font-variant-caps:normal;font-variant-numeric:normal;font-variant-east-asian:normal;stroke-width:0.453525"
         id="path2137" />
      <path
         d="m 161.78387,56.132 h 2.93197 v -3.055979 l 3.17113,-2.737095 5.42104,5.793074 h 3.73804 l -7.09518,-7.573514 5.94365,-5.12873 h -3.96834 l -7.21034,6.218253 v -6.218253 h -2.93197 z"
         style="font-style:normal;font-variant:normal;font-weight:normal;font-stretch:normal;font-size:18.141px;font-family:'Eternal Logo';-inkscape-font-specification:'Eternal Logo, Normal';font-variant-ligatures:normal;font-variant-caps:normal;font-variant-numeric:normal;font-variant-east-asian:normal;stroke-width:0.453525"
         id="path2139" />
    </g>
    <path
       d="M 47.466045,29.446824 A 20.446119,20.446119 0 0 0 27.06109,49.893121 20.446119,20.446119 0 0 0 47.507386,70.3389 20.446119,20.446119 0 0 0 64.446921,61.342551 12.561668,12.561668 0 0 1 61.138079,61.786453 12.561668,12.561668 0 0 1 48.576573,49.224944 12.561668,12.561668 0 0 1 61.138079,36.662922 a 12.561668,12.561668 0 0 1 2.107367,0.178284 20.446119,20.446119 0 0 0 -15.73806,-7.394382 20.446119,20.446119 0 0 0 -0.04134,0 z"
       style="fill:#00305a;fill-opacity:0.64;stroke:none;stroke-width:4.99999;stroke-opacity:1"
       id="path869" />
    <circle
       r="9.2207985"
       cy="49.625614"
       cx="60.870819"
       id="path904"
       style="fill:#2a2a2b;fill-opacity:0.55;stroke:none;stroke-width:6.05261;stroke-opacity:1" />
  </g>
</svg>
